<?xml version="1.0" encoding="UTF-8"?><svg id="a" xmlns="http://www.w3.org/2000/svg" viewBox="0 0 382.27 61.05"><path d="M.07,7.75h11.94s13.09,32.53,13.09,32.53L38.18,7.75h11.94s.07,45.56.07,45.56h-11.57l-.04-23.28-9.46,23.51h-8.07l-9.46-23.51-.03,23.27H0L.07,7.75Z" style="fill:#d6d6d6; stroke-width:0px;"/><path d="M55.05,7.76h12.33l10.08,28.21,6.5-28.21h9.01l6.5,28.21,10.05-28.21h12.32l-16.24,45.58h-11.01l-6.12-26.42-6.14,26.42h-10.99L55.05,7.76Z" style="fill:#d6d6d6; stroke-width:0px;"/><path d="M141.34,6.83c4.5,0,8.72,1.28,12.32,3.49,3.71,2.28,6.75,5.56,8.76,9.46.84,1.65,1.5,3.39,1.94,5.21.44,1.83.68,3.69.68,5.53s-.23,3.68-.68,5.54c-.43,1.79-1.08,3.54-1.94,5.21-2,3.9-5.05,7.18-8.76,9.46-3.61,2.21-7.83,3.49-12.32,3.49h-2.98c-6.52,0-12.45-2.66-16.74-6.96-4.29-4.29-6.96-10.22-6.96-16.74s2.66-12.45,6.96-16.74c4.29-4.29,10.22-6.96,16.74-6.96h0s2.98,0,2.98,0ZM138.36,18.44c-3.32,0-6.34,1.36-8.53,3.55-2.19,2.19-3.55,5.21-3.55,8.53s1.36,6.34,3.55,8.53,5.21,3.55,8.53,3.55h2.98c2.31,0,4.46-.65,6.29-1.77,1.91-1.17,3.47-2.85,4.49-4.83.43-.84.76-1.74.99-2.67.21-.86.31-1.81.31-2.81s-.11-1.96-.31-2.81c-.23-.95-.56-1.84-.99-2.67-1.02-1.98-2.58-3.66-4.49-4.83-1.83-1.12-3.98-1.77-6.29-1.77h-2.98Z" style="fill:#d6d6d6; stroke-width:0px;"/><path d="M172.85,35.64h0c-2.22-.7-4.2-1.93-5.81-3.54-2.59-2.59-4.2-6.17-4.2-10.11,0-3.94,1.61-7.52,4.2-10.11,2.59-2.59,6.17-4.2,10.11-4.2,7.12,0,14.15.06,21.23.06l-.06,45.56h-11.57s.02-17.01.02-17.01h-.98s-9.65,17.01-9.65,17.01h-13.32s10.03-17.67,10.03-17.67ZM186.78,27.66v-11.33s-6.66,0-6.66,0c-1.54,0-2.96.64-3.99,1.67-1.03,1.03-1.67,2.45-1.67,3.99s.64,2.96,1.68,3.99c1.03,1.03,2.45,1.68,3.99,1.68h6.66Z" style="fill:#d6d6d6; stroke-width:0px;"/><path d="M200.64,7.76h11.57l.02,13.39,12.6-13.39h15.76l-16.79,17.93,19.33,27.61h-14.12l-13.29-18.98-3.47,3.71.02,15.28h-11.57l-.07-45.55Z" style="fill:#d6d6d6; stroke-width:0px;"/><path d="M255.45,18.67c-1.48-.38-3-.45-4.32-.19-.86.17-1.53.45-1.82.82-.15.19-.25.5-.26.97-.04,1.36,3.58,3.04,7.22,4.73,7.22,3.35,14.5,6.72,14.19,16-.14,4.22-1.89,7.42-4.64,9.7-1.67,1.39-3.68,2.36-5.86,2.94-1.93.52-4.04.73-6.21.66-6.26-.21-13.14-2.97-17.04-7.68l8.94-7.4c1.77,2.13,5.21,3.4,8.47,3.51,1.01.03,1.98-.06,2.85-.29.61-.16,1.12-.39,1.46-.68.27-.22.45-.59.46-1.12.05-1.62-3.72-3.38-7.47-5.11-7.14-3.31-14.22-6.6-13.94-15.62.1-3.1,1.11-5.69,2.76-7.77,2.15-2.71,5.21-4.36,8.63-5.04,2.96-.59,6.27-.45,9.45.37,4.31,1.11,8.44,3.49,11.17,7l-9.17,7.12h0c-1.1-1.42-2.91-2.42-4.86-2.92Z" style="fill:#d6d6d6; stroke-width:0px;"/><text transform="translate(276.67 53.55) scale(1.26 1)" style="fill:#09f; font-family:Wolker, Wolker; font-size:63px; letter-spacing:-.3em;"><tspan x="0" y="0">/ //</tspan></text></svg>